<svg width="45" height="37" viewBox="0 0 45 37" fill="none" xmlns="http://www.w3.org/2000/svg">
<title>JP Logo</title>
<path d="M10.05 37C6.65005 37 4.11672 36.0333 2.45005 34.1C0.816716 32.1667 0.266716 29.5167 0.800049 26.15H4.80005C4.43338 28.45 4.76672 30.25 5.80005 31.55C6.83338 32.8167 8.45005 33.45 10.65 33.45C12.85 33.45 14.6667 32.8167 16.1 31.55C17.5667 30.25 18.4667 28.45 18.8 26.15L22.4001 3.65H13.5L14.05 -9.53674e-07H26.95L22.8 26.15C22.4667 28.3833 21.7167 30.3167 20.5501 31.95C19.3834 33.5833 17.9167 34.8333 16.15 35.7C14.3834 36.5667 12.35 37 10.05 37ZM17.4305 36.5L23.2305 -9.53674e-07H34.6805C36.9139 -9.53674e-07 38.7805 0.433332 40.2805 1.3C41.8139 2.16666 42.8972 3.4 43.5305 5C44.1639 6.56667 44.3139 8.43333 43.9805 10.6C43.6805 12.7333 42.9472 14.6 41.7805 16.2C40.6139 17.7667 39.1305 19 37.3305 19.9C35.5639 20.7667 33.5639 21.2 31.3305 21.2H23.8305L21.3805 36.5H17.4305ZM24.3805 17.6H31.8805C33.9805 17.6 35.7472 16.9667 37.1805 15.7C38.6472 14.4333 39.5639 12.7333 39.9305 10.6C40.2639 8.43333 39.8972 6.73333 38.8305 5.5C37.7972 4.23333 36.2305 3.6 34.1305 3.6H26.5805L24.3805 17.6Z" fill="#a83de2"/>
</svg>
